<svg xmlns="http://www.w3.org/2000/svg" xmlns:xlink="http://www.w3.org/1999/xlink" preserveAspectRatio="xMidYMid" width="51.969" height="46.75" viewBox="0 0 51.969 46.75">
  <defs>
    <style>
      .cls-1 {
        fill: #333333;
        fill-rule: evenodd;
      }
    </style>
  </defs>
  <path d="M27.031,35.880 L27.031,39.736 L36.398,44.997 L35.461,46.750 L25.978,41.490 L16.494,46.750 L15.557,44.997 L24.924,39.736 L24.924,35.880 L-0.015,35.880 L-0.015,-0.003 L51.970,-0.003 L51.970,35.880 L27.031,35.880 ZM1.976,33.892 L49.979,33.892 L49.979,1.983 L1.976,1.983 L1.976,33.892 ZM29.022,7.711 L30.895,8.296 L25.392,26.763 L18.953,17.880 L14.738,26.179 L9.118,14.724 L5.956,26.412 L3.966,25.945 L8.532,9.230 L14.738,21.737 L18.718,14.022 L24.690,22.322 L29.022,7.711 ZM44.242,13.672 C45.413,14.841 45.999,16.283 45.999,17.997 C45.999,19.633 45.413,21.035 44.242,22.204 C43.072,23.373 41.626,23.958 39.910,23.958 C38.271,23.958 36.866,23.373 35.695,22.204 C34.525,21.035 33.939,19.633 33.939,17.997 C33.939,16.283 34.525,14.841 35.695,13.672 C36.866,12.503 38.271,11.919 39.910,11.919 C41.626,11.919 43.072,12.503 44.242,13.672 ZM42.779,20.802 C43.598,20.024 44.008,19.089 44.008,17.997 C44.008,16.906 43.598,15.972 42.779,15.191 C41.959,14.414 41.003,14.022 39.910,14.022 C38.816,14.022 37.880,14.414 37.100,15.191 C36.319,15.972 35.930,16.906 35.930,17.997 C35.930,19.089 36.339,20.024 37.159,20.802 C37.978,21.581 38.895,21.970 39.910,21.970 C41.003,21.970 41.959,21.581 42.779,20.802 Z" class="cls-1"/>
</svg>
