<svg xmlns="http://www.w3.org/2000/svg" xmlns:xlink="http://www.w3.org/1999/xlink" preserveAspectRatio="xMidYMid" width="55" height="38.687" viewBox="0 0 55 38.687">
  <defs>
    <style>
      .cls-1 {
        fill: #333;
        fill-rule: evenodd;
      }
    </style>
  </defs>
  <path d="M47.266,38.685 L-0.000,38.685 L-0.000,7.737 L47.266,7.737 L47.266,38.685 ZM45.547,9.457 L1.719,9.457 L1.719,36.966 L45.547,36.966 L45.547,9.457 ZM9.453,6.018 L7.734,6.018 L7.734,0.001 L55.000,0.001 L55.000,30.948 L48.984,30.948 L48.984,29.229 L53.281,29.229 L53.281,1.721 L9.453,1.721 L9.453,6.018 ZM42.969,20.632 L35.234,20.632 L35.234,12.036 L42.969,12.036 L42.969,20.632 ZM41.250,13.755 L36.953,13.755 L36.953,18.913 L41.250,18.913 L41.250,13.755 ZM27.500,34.387 L29.219,34.387 L29.219,12.036 L27.500,12.036 L27.500,34.387 ZM4.297,15.474 L24.922,15.474 L24.922,13.755 L4.297,13.755 L4.297,15.474 ZM4.297,19.773 L22.344,19.773 L22.344,18.053 L4.297,18.053 L4.297,19.773 ZM4.297,24.071 L23.203,24.071 L23.203,22.351 L4.297,22.351 L4.297,24.071 Z" class="cls-1"/>
</svg>
