<svg xmlns="http://www.w3.org/2000/svg" xmlns:xlink="http://www.w3.org/1999/xlink" preserveAspectRatio="xMidYMid" width="43.719" height="39.97" viewBox="0 0 43.719 39.97">
  <defs>
    <style>
      .cls-1 {
        fill: #5d5d5d;
        fill-rule: evenodd;
      }
    </style>
  </defs>
  <path d="M27.784,39.986 L27.784,9.986 L43.716,9.986 L43.716,39.986 L27.784,39.986 ZM42.779,10.924 L28.721,10.924 L28.721,13.736 L42.779,13.736 L42.779,10.924 ZM42.779,14.674 L28.721,14.674 L28.721,33.424 L42.779,33.424 L42.779,14.674 ZM42.779,34.361 L28.721,34.361 L28.721,39.049 L42.779,39.049 L42.779,34.361 ZM35.750,35.298 C36.140,35.298 36.472,35.435 36.746,35.708 C37.019,35.982 37.156,36.315 37.156,36.705 C37.156,37.095 37.019,37.428 36.746,37.701 C36.472,37.975 36.140,38.111 35.750,38.111 C35.359,38.111 35.027,37.975 34.754,37.701 C34.481,37.428 34.344,37.095 34.344,36.705 C34.344,36.315 34.481,35.982 34.754,35.708 C35.027,35.435 35.359,35.298 35.750,35.298 ZM35.750,37.173 C36.062,37.173 36.219,37.018 36.219,36.705 C36.219,36.393 36.062,36.236 35.750,36.236 C35.437,36.236 35.281,36.393 35.281,36.705 C35.281,37.018 35.437,37.173 35.750,37.173 ZM37.624,12.798 L33.876,12.798 L33.876,11.861 L37.624,11.861 L37.624,12.798 ZM0.005,-0.014 L27.496,-0.014 L27.496,39.986 L0.005,39.986 L0.005,-0.014 ZM1.254,38.736 L26.246,38.736 L26.246,32.486 L1.254,32.486 L1.254,38.736 ZM1.254,31.236 L26.246,31.236 L26.246,6.236 L1.254,6.236 L1.254,31.236 ZM1.254,4.986 L26.246,4.986 L26.246,1.236 L1.254,1.236 L1.254,4.986 ZM11.251,2.486 L16.249,2.486 L16.249,3.736 L11.251,3.736 L11.251,2.486 ZM13.750,37.486 C13.229,37.486 12.786,37.304 12.422,36.939 C12.058,36.575 11.876,36.132 11.876,35.610 C11.876,35.091 12.058,34.647 12.422,34.283 C12.786,33.918 13.229,33.736 13.750,33.736 C14.270,33.736 14.713,33.918 15.078,34.283 C15.441,34.647 15.625,35.091 15.625,35.610 C15.625,36.132 15.441,36.575 15.078,36.939 C14.713,37.304 14.270,37.486 13.750,37.486 ZM13.750,34.986 C13.333,34.986 13.125,35.194 13.125,35.610 C13.125,36.029 13.333,36.236 13.750,36.236 C14.166,36.236 14.375,36.029 14.375,35.610 C14.375,35.194 14.166,34.986 13.750,34.986 Z" class="cls-1"/>
</svg>
