<svg xmlns="http://www.w3.org/2000/svg" xmlns:xlink="http://www.w3.org/1999/xlink" preserveAspectRatio="xMidYMid" width="55" height="42.97" viewBox="0 0 55 42.97">
  <defs>
    <style>
      .cls-1 {
        fill: #494949;
        fill-rule: evenodd;
      }
    </style>
  </defs>
  <path d="M46.406,42.969 L-0.000,42.969 L-0.000,6.863 L46.406,6.863 L46.406,42.969 ZM1.719,8.582 L1.719,31.470 L12.890,20.187 L25.137,34.157 L33.623,28.999 L44.687,38.562 L44.687,8.582 L1.719,8.582 ZM44.687,41.249 L44.687,40.819 L33.408,31.148 L24.707,36.306 L12.890,22.767 L1.719,33.834 L1.719,41.249 L44.687,41.249 ZM7.734,-0.014 L55.000,-0.014 L55.000,36.091 L47.266,36.091 L47.266,34.372 L53.281,34.372 L53.281,1.705 L9.453,1.705 L9.453,6.003 L7.734,6.003 L7.734,-0.014 ZM29.219,18.898 C29.219,17.465 29.719,16.249 30.723,15.245 C31.725,14.242 32.941,13.740 34.375,13.740 C35.807,13.740 37.024,14.242 38.027,15.245 C39.029,16.249 39.531,17.465 39.531,18.898 C39.531,20.332 39.029,21.550 38.027,22.551 C37.024,23.556 35.807,24.056 34.375,24.056 C32.941,24.056 31.725,23.556 30.723,22.551 C29.719,21.550 29.219,20.332 29.219,18.898 ZM30.937,18.898 C30.937,19.902 31.260,20.725 31.904,21.370 C32.549,22.014 33.371,22.337 34.375,22.337 C35.377,22.337 36.201,22.014 36.846,21.370 C37.490,20.725 37.812,19.902 37.812,18.898 C37.812,17.896 37.490,17.072 36.846,16.427 C36.201,15.782 35.377,15.459 34.375,15.459 C33.371,15.459 32.549,15.782 31.904,16.427 C31.260,17.072 30.937,17.896 30.937,18.898 Z" class="cls-1"/>
</svg>
